<svg id="Layer_1" data-name="Layer 1" xmlns="http://www.w3.org/2000/svg" viewBox="0 0 1374 768"><defs><style>.cls-1{fill:#1a1a1a;}.cls-2{fill:#f0f;}.cls-3{fill:#ed1c24;}.cls-4{fill:#fbb03b;}.cls-5{fill:#d9e021;}.cls-6{fill:#009245;}.cls-7{fill:#ff931e;}.cls-8{fill:#2e3192;}.cls-9{fill:#39b54a;}.cls-10{fill:lime;}.cls-11,.cls-15,.cls-16{fill:none;stroke-miterlimit:10;}.cls-11{stroke:#000;stroke-width:0.45px;}.cls-12{fill:#c1272d;}.cls-13{fill:#fff;}.cls-14{fill:#00a99d;}.cls-15{stroke:#009245;stroke-width:2px;}.cls-16{stroke:#006837;stroke-width:6px;}</style></defs><rect class="cls-1" x="0.5" y="0.5" width="1373" height="767"/><path d="M1365,1V767H-7V1H1365m1-1H-8V768H1366V0Z" transform="translate(8)"/><path class="cls-2" d="M181.71,69.38,196.84,30h12.28l1,164.5H199Q188.61,118.82,168.16,84t-47-34.8q-22.2,0-36.33,24.14t-14.13,59q0,21.67,5.37,38t16.06,26.57q10.66,10.23,40.29,21.78Q174,235.1,190.7,251.89t25,42.27q8.25,25.48,8.25,59.66,0,61.05-22.63,101.18t-58.45,40.13q-38.52,0-66.95-45.17l-19,42.12H44.78V317.2H56.89Q64,389.53,88.52,431.34t55.34,41.82q24.88,0,40.62-26.71t15.73-64.85q0-21.68-5.89-38a65.19,65.19,0,0,0-18.67-27.47q-12.78-11.13-50.29-27-41.22-17.7-56.19-39.67-21-31.14-21-88.21,0-59.51,20.94-97.51t53.57-38q15.65,0,29.78,10.08T181.71,69.38Z" transform="translate(8)"/><path class="cls-3" d="M168.15,21.88H325.54q53.32,0,81.39,36.1T435,152.4q0,58.33-25.85,88.95-35.56,42.22-87.69,42.22H264.58V446.31q0,14.19,4.53,20.31a19.48,19.48,0,0,0,16.18,7.73h36.24v24.17H168.15V474.35h32.07q9.53,0,14-5.64t4.44-15.31V73.45q0-14.51-5.63-21t-21.23-6.45H168.15ZM264.58,260h43.28q41.13,0,59.33-25.62t18.19-84.6q0-41.25-8.18-63.32t-24-32.71q-15.82-10.63-52-10.64-23.91,0-30.26,6.77t-6.35,23.53Z" transform="translate(8)"/><path class="cls-4" d="M428.67,28.48q39.94,0,74.88,30.46T558.24,144Q578,198.61,578,267T558.13,390.38q-19.86,55.06-54.58,85.84T430,507q-38,0-71.36-30.16t-53.51-86.3Q284.89,334.4,284.89,266q0-67.44,19.55-121.72T358,59.25Q391.93,28.49,428.67,28.48Zm3.41,23.81q-41.65,0-67.5,50.11T338.73,265.73q0,122.81,26.49,169.82t65.58,47q27.34,0,48.07-21.34t33-67.74q12.29-46.39,12.28-121.88,0-82.28-11.53-128.52t-32.9-68.51Q458.36,52.3,432.08,52.29Z" transform="translate(8)"/><path class="cls-5" d="M330,40.79h71.65l181.05,357V139.4q0-39-11.77-57.76-10.77-17.2-32.07-17.81v-23H644v23q-16.11,0-24.06,6.75T606.07,95.16a123.27,123.27,0,0,0-5.91,39v361H581.08L393.73,123.49V397.7q0,37.2,12.39,55.49t38.36,18.9v23H330v-23q21.51-1.21,34.1-21.32t12.58-49.23V93.85l-3.57-5.92Q363,71.21,358.73,68.13q-5.88-4.3-15.18-4.3H330Z" transform="translate(8)"/><path class="cls-6" d="M605,40.73H717V63.86H697.79q-12.81,0-16.18,6t-3.37,25.45V440.7q0,20.67,3,25.91,3.94,7.09,14.29,7.09H717v23.13H605V473.7h21.18q11.18,0,14.46-6.17t3.28-26.83V95.32q0-19.74-3-24.37-4.59-7.08-16.91-7.09H605Z" transform="translate(8)"/><path class="cls-7" d="M702.08,40.73H815.23V63.86H791.12q-7.7,0-11.88,7.4t-4.18,18.81v211.8l93.22-183.43q8-16,8-30.22,0-10.78-5.53-17.57t-18.07-6.79h-6.87V40.73h101.6V63.86h-7.87q-10.22,0-22.43,11.1T894.56,105.8L837.24,216.13l82.09,223q6.85,18.81,14.23,26.67T951,473.7h9v23.13H848.36V473.7h12.72q13.9,0,18.5-4.32a14.17,14.17,0,0,0,4.6-10.79,36,36,0,0,0-2-11.72L813.93,262l-38.87,76.63V450.88q0,10.49,3.34,15.42,5.36,7.4,12.72,7.4h24.11v23.13H702.08V473.7h21.76q8.37,0,12.39-6.32t4-16.5V86.68q0-10.79-4.52-16.81t-15.23-6H702.08Z" transform="translate(8)"/><path class="cls-8" d="M791,40.73H898.16V64H872.54q-6.09,0-9,6.34t-2.89,20V451.47q0,13,3.67,18.42t14.74,5.42h32.45q25.89,0,42.35-34.2t24-118.71h10.94l-5.31,176.12H791V475.31h18.9q9.69,0,13.59-7.28t3.91-23.37V87.16q0-11.44-3.28-17.33T814.43,64H791Z" transform="translate(8)"/><path class="cls-9" d="M938,38h174.31l4.17,154.45h-10q-5.94-73.05-18.79-102.14t-33.49-29.1h-43.07q-5.21,0-7.87,5.88t-2.67,18V248.21h18.83q15.14,0,24.55-22.6t10.16-69.33h10.26v212h-10.26q-.75-52.6-10.31-75.37t-26-22.75h-17.2v182q0,9.92,3.19,15.17t10.62,5.26h34q55.39,0,63.86-147.33H1123l-3.72,170.55H938V472.61h15q8.78,0,12.35-6.34t3.57-18.42V85.08q0-12.06-3.13-18A10.37,10.37,0,0,0,956,61.25H938Z" transform="translate(8)"/><path class="cls-9" d="M1196.24,37.68a19.37,19.37,0,0,1-1.07,6.41l-1.7,3.52-9.2,19h-.94l0-12.95,0-8.17c3.55,0,6.43-3.57,6.43-8s-2.88-8-6.43-8l.06-7.95C1190.46,21.64,1196.24,28.82,1196.24,37.68Z" transform="translate(8)"/><path class="cls-10" d="M1182.87,53.69l0,13h-1l-10-20.5-.15-.31a19,19,0,0,1-1.8-8.17c0-8.86,5.78-16,12.91-16l-.06,8c-3.55,0-6.42,3.57-6.42,8s2.87,8,6.42,8Z" transform="translate(8)"/><line class="cls-11" x1="1187.66" y1="68.16" x2="1187.57" y2="68.16"/><path class="cls-3" d="M1183.49,67.38l-.62,3.69a1.84,1.84,0,0,1-1.11-1.84,1.7,1.7,0,0,1,1.44-1.88A1.43,1.43,0,0,1,1183.49,67.38Z" transform="translate(8)"/><path class="cls-12" d="M1184.64,69.23a1.71,1.71,0,0,1-1.44,1.89,1,1,0,0,1-.33-.05l.62-3.69A1.85,1.85,0,0,1,1184.64,69.23Z" transform="translate(8)"/><path class="cls-10" d="M1180.06,41.82a5.7,5.7,0,0,0,2.9.82c1.65,0,2.61-.88,2.61-2.14s-.67-1.84-2.35-2.49c-2-.72-3.3-1.78-3.3-3.55,0-2,1.61-3.4,4-3.4a5.61,5.61,0,0,1,2.76.62l-.44,1.31a5.06,5.06,0,0,0-2.38-.59c-1.7,0-2.35,1-2.35,1.88,0,1.17.76,1.74,2.48,2.41,2.12.82,3.19,1.84,3.19,3.68s-1.43,3.61-4.37,3.61a6.48,6.48,0,0,1-3.19-.8Z" transform="translate(8)"/><path class="cls-13" d="M1200.66,35.51c0-4-.09-7.15-.17-10.08h3.45l.17,5.29h.09c1.57-3.76,4.06-6,7.51-6,5.11,0,9,6.32,9,15.71,0,11.1-4.63,16.59-9.6,16.59-2.8,0-5.24-1.78-6.51-4.85h-.09V69h-3.8Zm3.8,8.24a17.59,17.59,0,0,0,.18,2.29c.69,3.9,3,6.58,5.76,6.58,4.06,0,6.42-4.85,6.42-11.94,0-6.19-2.23-11.49-6.29-11.49-2.62,0-5.06,2.75-5.81,7a13.05,13.05,0,0,0-.26,2.3Z" transform="translate(8)"/><path class="cls-13" d="M1249.49,33.79c0-3.19,0-5.81-.18-8.36h3.41l.22,5.1h.08c1-2.93,3.5-5.81,7-5.81,2.93,0,7.47,2.56,7.47,13.15V56.32h-3.84V38.51c0-5-1.27-9.13-4.9-9.13-2.53,0-4.49,2.62-5.15,5.75a11.84,11.84,0,0,0-.26,2.62V56.32h-3.84Z" transform="translate(8)"/><path class="cls-14" d="M1278,16.74c0,1.92-.91,3.45-2.44,3.45-1.36,0-2.32-1.53-2.32-3.45s1-3.51,2.41-3.51S1278,14.77,1278,16.74Zm-4.28,39.58V25.43h3.85V56.32Z" transform="translate(8)"/><path class="cls-13" d="M1287.74,39.6h.09c.52-1.09,1.27-2.43,1.88-3.51l6.2-10.66h4.63l-8.17,12.7,9.3,18.19H1297l-7.29-14.81-2,3.19V56.32h-3.8V11h3.8Z" transform="translate(8)"/><path class="cls-6" d="M1305.17,11H1309V56.32h-3.84Z" transform="translate(8)"/><path class="cls-13" d="M1317.61,41.89c.09,7.6,3.41,10.73,7.25,10.73a10.23,10.23,0,0,0,5.86-1.6l.65,4a12.55,12.55,0,0,1-7,1.92c-6.51,0-10.4-6.26-10.4-15.58s3.76-16.66,9.92-16.66c6.9,0,8.73,8.88,8.73,14.56,0,1.15-.08,2-.13,2.61Zm11.27-4c0-3.57-1-9.12-5.33-9.12-3.88,0-5.59,5.23-5.89,9.12Z" transform="translate(8)"/><path class="cls-15" d="M1246.57,41.53a23.29,23.29,0,0,1-3.47,12.69c-2.18,3.3-5.19,5.35-8.53,5.38h-.28l-.41,0c-3.11-.24-5.91-2.23-8-5.34a23.26,23.26,0,0,1-3.49-12.71,23.31,23.31,0,0,1,3.42-12.6c2.11-3.24,5-5.3,8.25-5.46h.41c3.36,0,6.4,2.06,8.59,5.37A23.33,23.33,0,0,1,1246.57,41.53Z" transform="translate(8)"/><path class="cls-15" d="M1243.09,28.83a9.39,9.39,0,0,1-3.4,4.35,9.21,9.21,0,0,1-5.25,1.64h-.15a9.15,9.15,0,0,1-5.35-1.83,9.31,9.31,0,0,1-3.1-4.06c2.11-3.24,5-5.3,8.25-5.46h.41C1237.86,23.46,1240.9,25.52,1243.09,28.83Z" transform="translate(8)"/><path class="cls-15" d="M1243.1,54.22c-2.18,3.3-5.19,5.35-8.53,5.38l-.28,0a3,3,0,0,1-.41,0c-3.11-.24-5.91-2.23-8-5.34a9.41,9.41,0,0,1,3-4,9.19,9.19,0,0,1,5.33-1.86h.22a9.21,9.21,0,0,1,5.17,1.59A9.43,9.43,0,0,1,1243.1,54.22Z" transform="translate(8)"/><path class="cls-15" d="M1240.37,41.53h0a49.46,49.46,0,0,1-.69,8.42c-1,5.51-2.89,9.34-5.11,9.64l-.28,0a3,3,0,0,1-.41,0c-2.12-.42-4-4.09-4.92-9.35a48.1,48.1,0,0,1-.75-8.69h0a47.54,47.54,0,0,1,.73-8.54c1-5.51,2.92-9.3,5.15-9.52h.28c2.31.09,4.31,4,5.32,9.72A48.75,48.75,0,0,1,1240.37,41.53Z" transform="translate(8)"/><line class="cls-15" x1="1242.29" y1="23.46" x2="1242.29" y2="59.62"/><line class="cls-15" x1="1230.42" y1="41.53" x2="1254.57" y2="41.53"/><line class="cls-16" x1="1216.21" y1="64.89" x2="1334.73" y2="64.89"/><path class="cls-13" d="M66.35,550.39H87.46l.51,9.82H86.76q-1.2-8.65-6.28-8.66a2.13,2.13,0,0,0-1.4.35,1.52,1.52,0,0,0-.37,1.16v20.78a1.14,1.14,0,0,0,.36.93,2,2,0,0,0,1.22.3h2.62v1.32H70.83v-1.32h3a1.26,1.26,0,0,0,.91-.3,1,1,0,0,0,.32-.79V552.9a1.29,1.29,0,0,0-.4-1,2,2,0,0,0-1.31-.34A5.06,5.06,0,0,0,69.09,554a14.67,14.67,0,0,0-2,6.25H65.79Z" transform="translate(8)"/><path class="cls-13" d="M89.53,550.39l6.24-.3v12.69a9.47,9.47,0,0,1,2.8-2.52,6.34,6.34,0,0,1,3.16-.84,5.47,5.47,0,0,1,2.85.76,4.62,4.62,0,0,1,1.68,2.09,8.39,8.39,0,0,1,.69,3.53v7.83a1.4,1.4,0,0,0,.39,1.1,1.84,1.84,0,0,0,1.21.34H110v1.32h-8.9v-1.32h1a2.46,2.46,0,0,0,1.55-.36,1.32,1.32,0,0,0,.44-1.08V565.8a4.73,4.73,0,0,0-1-3.2,3.19,3.19,0,0,0-2.54-1.15,4.09,4.09,0,0,0-2.25.65,5.25,5.25,0,0,0-1.76,2,5.82,5.82,0,0,0-.72,2.81v6.57a1.76,1.76,0,0,0,.37,1.25,1.67,1.67,0,0,0,1.22.37h1.4v1.32h-8.7v-1.32h1a2,2,0,0,0,1.42-.4,1.6,1.6,0,0,0,.42-1.22V553.8a2,2,0,0,0-.55-1.57,2.26,2.26,0,0,0-1.61-.52h-1.2Z" transform="translate(8)"/><path class="cls-13" d="M127.4,568.27H115.6q.09,3.75,1.41,5.3a4.88,4.88,0,0,0,3.85,1.74c2.29,0,4.14-1.3,5.54-3.92l1.14.5q-2.57,5-7.42,5a7.35,7.35,0,0,1-5.56-2.39,8.54,8.54,0,0,1-2.26-6.12,9.34,9.34,0,0,1,2.22-6.48,7.1,7.1,0,0,1,5.48-2.47,7,7,0,0,1,4.13,1.23,7.45,7.45,0,0,1,2.62,3.54A12.27,12.27,0,0,1,127.4,568.27ZM115.6,567h7.14a1.21,1.21,0,0,0,1-.43,2.33,2.33,0,0,0,.35-1.47,4.78,4.78,0,0,0-1.2-3.29,3.69,3.69,0,0,0-2.84-1.35,3.8,3.8,0,0,0-3.1,1.63A8.17,8.17,0,0,0,115.6,567Z" transform="translate(8)"/><path class="cls-13" d="M155.42,552.36l1.58-2.27h1.28l.11,9.47h-1.16A12.84,12.84,0,0,0,154,553.2a7,7,0,0,0-4.91-2,5.31,5.31,0,0,0-3.8,1.39,4.49,4.49,0,0,0-1.48,3.39,4,4,0,0,0,2.24,3.72,18.79,18.79,0,0,0,4.21,1.26,24.57,24.57,0,0,1,6.1,1.91,6.26,6.26,0,0,1,3.47,5.87,7.81,7.81,0,0,1-2.37,5.83,8.35,8.35,0,0,1-6.1,2.31,10.29,10.29,0,0,1-7-2.6l-2,2.42h-1.26V566.63h1.26a11.53,11.53,0,0,0,3.31,6.58,8.25,8.25,0,0,0,5.78,2.4,6,6,0,0,0,4.25-1.53,5,5,0,0,0,1.64-3.74,3.85,3.85,0,0,0-.62-2.19,4.65,4.65,0,0,0-1.95-1.58,29.86,29.86,0,0,0-5.25-1.56q-4.31-1-5.87-2.28a6.18,6.18,0,0,1-2.2-5.08,7.5,7.5,0,0,1,7.79-7.81,8.59,8.59,0,0,1,3.11.58A11.3,11.3,0,0,1,155.42,552.36Z" transform="translate(8)"/><path class="cls-13" d="M170.39,559.42a7.34,7.34,0,0,1,5.58,2.4,8.83,8.83,0,0,1,2.26,6.32,9.67,9.67,0,0,1-1,4.62,7.51,7.51,0,0,1-2.88,3,7.77,7.77,0,0,1-4,1.11,7.08,7.08,0,0,1-5.43-2.43,10,10,0,0,1,0-12.6A7.17,7.17,0,0,1,170.39,559.42Zm0,1.25a3.82,3.82,0,0,0-3.23,1.79c-.85,1.19-1.27,3.06-1.27,5.63s.42,4.52,1.26,5.73a3.8,3.8,0,0,0,3.24,1.81,3.9,3.9,0,0,0,3.33-1.81Q175,572,175,567.9q0-3.82-1.26-5.52A4,4,0,0,0,170.39,560.67Z" transform="translate(8)"/><path class="cls-13" d="M193.21,571.5l1.14.33c-.91,3.37-2.93,5-6,5a7.44,7.44,0,0,1-5.61-2.27,8.3,8.3,0,0,1-2.18-6,9.15,9.15,0,0,1,2.39-6.76,7.68,7.68,0,0,1,5.62-2.4,6,6,0,0,1,4,1.34,3.84,3.84,0,0,1,1.58,3,2.29,2.29,0,0,1-.59,1.63,1.88,1.88,0,0,1-2.73.1,1.81,1.81,0,0,1-.54-1.32,2.28,2.28,0,0,1,.59-1.47,1,1,0,0,0,.29-.53,1.3,1.3,0,0,0-.69-1,3.2,3.2,0,0,0-1.86-.48,3.75,3.75,0,0,0-3.26,1.56,10.26,10.26,0,0,0-1.58,6,8.6,8.6,0,0,0,1.41,5.35,4.35,4.35,0,0,0,3.58,1.82Q191.76,575.37,193.21,571.5Z" transform="translate(8)"/><path class="cls-13" d="M196.29,559.92l6.55-.2v14.17a1.09,1.09,0,0,0,.28.83,1.52,1.52,0,0,0,1,.35H206v1.32h-9.37v-1.32h1.74a1.51,1.51,0,0,0,1.13-.38,1.53,1.53,0,0,0,.36-1.1V563.22a1.88,1.88,0,0,0-.56-1.48,2.42,2.42,0,0,0-1.67-.51h-1.35Zm4.57-9.83a1.88,1.88,0,0,1,1.38.6,1.91,1.91,0,0,1,.6,1.4,1.84,1.84,0,0,1-.58,1.37,2,2,0,0,1-3.37-1.38,1.93,1.93,0,0,1,.59-1.39A1.9,1.9,0,0,1,200.86,550.09Z" transform="translate(8)"/><path class="cls-13" d="M225.34,574.58l.64,1a3.92,3.92,0,0,1-2.85,1.32,3.18,3.18,0,0,1-2-.65,5.34,5.34,0,0,1-1.43-2.29,10.39,10.39,0,0,1-2.93,2.35,7.23,7.23,0,0,1-3,.59,5.87,5.87,0,0,1-3.85-1.09,3.47,3.47,0,0,1-1.32-2.8q0-2.57,3-4.26a21.44,21.44,0,0,1,8-2.26V564a3,3,0,0,0-1.08-2.29,4,4,0,0,0-2.72-1,5.16,5.16,0,0,0-2.64.64c-.52.31-.79.62-.79.93a1.71,1.71,0,0,0,.42.82,2.24,2.24,0,0,1,.51,1.25,1.72,1.72,0,0,1-.51,1.29,1.79,1.79,0,0,1-1.33.5,2,2,0,0,1-1.47-.59,2.1,2.1,0,0,1-.59-1.53,4,4,0,0,1,2-3.18,8.42,8.42,0,0,1,5.14-1.45,7,7,0,0,1,4.49,1.27,3.89,3.89,0,0,1,1.54,3.11v9a3.14,3.14,0,0,0,.39,1.76,1.16,1.16,0,0,0,1,.58A2.45,2.45,0,0,0,225.34,574.58Zm-5.76-7q-4.47.61-6.33,2a3.52,3.52,0,0,0-1.39,3,3,3,0,0,0,.72,2.11,2.47,2.47,0,0,0,1.88.77,4.86,4.86,0,0,0,3.6-1.58,5.44,5.44,0,0,0,1.52-3.94Z" transform="translate(8)"/><path class="cls-13" d="M234.18,550.09V574a1,1,0,0,0,.3.76,1.71,1.71,0,0,0,1.08.35h1.74v1.32H228v-1.32h1.65a1.68,1.68,0,0,0,1.21-.39,1.47,1.47,0,0,0,.39-1.09v-20a1.58,1.58,0,0,0-.47-1.28,2.33,2.33,0,0,0-1.6-.56h-1.48v-1.32Z" transform="translate(8)"/><path class="cls-13" d="M249.6,550.39h6.21l15.67,20.42V556a4.62,4.62,0,0,0-1-3.3,3.75,3.75,0,0,0-2.78-1v-1.32h9.1v1.32a4.48,4.48,0,0,0-2.08.38,3.18,3.18,0,0,0-1.2,1.41,4.91,4.91,0,0,0-.51,2.23v20.66h-1.66l-16.22-21.27v15.69a4.29,4.29,0,0,0,1.07,3.18,4.78,4.78,0,0,0,3.32,1.08v1.32H249.6v-1.32a4.08,4.08,0,0,0,3-1.22,3.94,3.94,0,0,0,1.09-2.82v-17.6l-.31-.34a5.78,5.78,0,0,0-1.24-1.14,3.12,3.12,0,0,0-1.32-.24H249.6Z" transform="translate(8)"/><path class="cls-13" d="M294.09,568.27H282.3q.07,3.75,1.4,5.3a4.88,4.88,0,0,0,3.85,1.74c2.3,0,4.14-1.3,5.54-3.92l1.14.5q-2.57,5-7.42,5a7.37,7.37,0,0,1-5.56-2.39,8.54,8.54,0,0,1-2.26-6.12,9.34,9.34,0,0,1,2.22-6.48,7.12,7.12,0,0,1,5.48-2.47,7,7,0,0,1,4.13,1.23,7.45,7.45,0,0,1,2.62,3.54A12,12,0,0,1,294.09,568.27ZM282.3,567h7.13a1.24,1.24,0,0,0,1-.43,2.4,2.4,0,0,0,.35-1.47,4.74,4.74,0,0,0-1.21-3.29,3.68,3.68,0,0,0-2.83-1.35,3.82,3.82,0,0,0-3.11,1.63A8.1,8.1,0,0,0,282.3,567Z" transform="translate(8)"/><path class="cls-13" d="M301,553.2h1.18v6.72h5.32v1.61h-5.32V572.1a3.09,3.09,0,0,0,.65,2.1,2.12,2.12,0,0,0,1.65.73,2.49,2.49,0,0,0,2-1.11,6.78,6.78,0,0,0,1-3.66h1.18a7.68,7.68,0,0,1-1.49,4.88,4.57,4.57,0,0,1-3.61,1.59,4.42,4.42,0,0,1-3.19-1.11,3.93,3.93,0,0,1-1.15-2.93V561.53h-2.86V560.3a4.58,4.58,0,0,0,3-1.63A9.28,9.28,0,0,0,301,553.2Z" transform="translate(8)"/><path class="cls-13" d="M310.41,559.92h7.22v1.21h-.95a1.7,1.7,0,0,0-1,.22.7.7,0,0,0-.3.59,2.14,2.14,0,0,0,.18.82l3.71,9.32,3.21-8.85a4.72,4.72,0,0,0-1.18-1.76,3.39,3.39,0,0,0-1.79-.34v-1.21h7.95v1.21h-.67a2.33,2.33,0,0,0-1.25.24.74.74,0,0,0-.35.66,2.25,2.25,0,0,0,.16.73l3.75,9.32,3-8.28a4.25,4.25,0,0,0,.3-1.41,1,1,0,0,0-.45-.89,3.51,3.51,0,0,0-1.73-.37v-1.21h6.41v1.21a3.52,3.52,0,0,0-1.81.75,4.11,4.11,0,0,0-1,1.69L329,576.88h-1l-4.63-11.52-4.14,11.52h-1l-5.92-14.56a2,2,0,0,0-.63-.92,2.33,2.33,0,0,0-1.19-.27Z" transform="translate(8)"/><path class="cls-13" d="M346.42,559.42a7.34,7.34,0,0,1,5.58,2.4,8.83,8.83,0,0,1,2.26,6.32,9.79,9.79,0,0,1-1,4.62,7.58,7.58,0,0,1-2.88,3,7.8,7.8,0,0,1-4,1.11,7.07,7.07,0,0,1-5.42-2.43,10,10,0,0,1,0-12.6A7.17,7.17,0,0,1,346.42,559.42Zm0,1.25a3.82,3.82,0,0,0-3.23,1.79c-.85,1.19-1.27,3.06-1.27,5.63s.42,4.52,1.26,5.73a3.8,3.8,0,0,0,3.24,1.81,3.9,3.9,0,0,0,3.33-1.81Q351,572,351,567.9q0-3.82-1.26-5.52A4,4,0,0,0,346.42,560.67Z" transform="translate(8)"/><path class="cls-13" d="M356.39,559.92l5.92-.3v6.66a14.68,14.68,0,0,1,2.29-5,4.07,4.07,0,0,1,3.3-1.68,2.89,2.89,0,0,1,2.14.81,3,3,0,0,1,.8,2.19,2.54,2.54,0,0,1-.54,1.73A1.71,1.71,0,0,1,369,565a1.63,1.63,0,0,1-1.28-.53,2,2,0,0,1-.48-1.42,2.19,2.19,0,0,1,.28-1.09,2.31,2.31,0,0,0,.26-.54q0-.27-.33-.27a2.58,2.58,0,0,0-1.64.85,7.62,7.62,0,0,0-1.95,3.23,17.44,17.44,0,0,0-1.05,5.11v3.54a1.06,1.06,0,0,0,.42.91,2.47,2.47,0,0,0,1.44.32h2.09v1.32H356.49v-1.32h1.64a2,2,0,0,0,1.25-.33.94.94,0,0,0,.42-.78V563.47a2.52,2.52,0,0,0-.51-1.75,1.89,1.89,0,0,0-1.46-.56h-1.44Z" transform="translate(8)"/><path class="cls-13" d="M372.35,550.39l6.29-.3v18l5.36-4.66a1.86,1.86,0,0,0,.77-1.2.74.74,0,0,0-.46-.68,5.43,5.43,0,0,0-2.22-.38v-1.23h8.77v1.23a6.24,6.24,0,0,0-4,1.37l-3.79,3.35,6.14,8.44a2.28,2.28,0,0,0,1.95.76h.92v1.32h-9v-1.32H384a3.34,3.34,0,0,0,1.35-.18c.22-.11.34-.26.34-.42a.82.82,0,0,0-.18-.49L381,567.7l-2.39,2.11V574a.85.85,0,0,0,.34.75,2.17,2.17,0,0,0,1.31.34h1.15v1.32h-8.85v-1.32H374a1.92,1.92,0,0,0,1.3-.37,1.25,1.25,0,0,0,.42-1V553.39a1.35,1.35,0,0,0-.51-1.16,3.36,3.36,0,0,0-2-.52h-.89Z" transform="translate(8)"/><path class="cls-13" d="M393.65,559.92l6.56-.2v14.17a1.05,1.05,0,0,0,.28.83,1.52,1.52,0,0,0,1,.35h1.86v1.32H394v-1.32h1.74a1.31,1.31,0,0,0,1.5-1.48V563.22a1.88,1.88,0,0,0-.56-1.48,2.44,2.44,0,0,0-1.67-.51h-1.36Zm4.57-9.83a2.05,2.05,0,0,1,2,2,1.84,1.84,0,0,1-.58,1.37,1.89,1.89,0,0,1-1.39.58,2,2,0,0,1-2-2,2.05,2.05,0,0,1,2-2Z" transform="translate(8)"/><path class="cls-13" d="M405.31,559.92l5.46-.34a26.6,26.6,0,0,1,.5,3.62,7.75,7.75,0,0,1,2.61-2.69,6.56,6.56,0,0,1,3.4-.89,5.37,5.37,0,0,1,2.74.64,4.53,4.53,0,0,1,1.78,2,7.13,7.13,0,0,1,.66,3.11v8a1.68,1.68,0,0,0,.41,1.27,2,2,0,0,0,1.35.38h1.16v1.32H416.7v-1.32h.82a2.6,2.6,0,0,0,1.62-.37,1.34,1.34,0,0,0,.46-1.11v-7.05a6.6,6.6,0,0,0-.7-3.41,3.3,3.3,0,0,0-3-1.58,4.14,4.14,0,0,0-3.32,1.6,6.35,6.35,0,0,0-1.32,4.17v6.1a1.64,1.64,0,0,0,.41,1.27,2,2,0,0,0,1.36.38h1.14v1.32h-8.71v-1.32h1.14a2.13,2.13,0,0,0,1.31-.35,1.09,1.09,0,0,0,.45-.88V563.2a2.09,2.09,0,0,0-.58-1.6,2.28,2.28,0,0,0-1.64-.54h-.84Z" transform="translate(8)"/><path class="cls-13" d="M439.92,560.85a4.85,4.85,0,0,1,3.23-1.78,2,2,0,0,1,1.46.56,1.85,1.85,0,0,1,.58,1.38,1.56,1.56,0,0,1-.39,1.08,1.25,1.25,0,0,1-.93.43c-.66,0-1.12-.41-1.35-1.23-.09-.35-.25-.53-.47-.53a1.9,1.9,0,0,0-1.31.79,7.64,7.64,0,0,1,1,1.8,4.69,4.69,0,0,1,.28,1.65,4.83,4.83,0,0,1-.74,2.69,6.14,6.14,0,0,1-2.45,2.07,7,7,0,0,1-3.28.9h-1.91a5.78,5.78,0,0,0-2.71.42,1.45,1.45,0,0,0-.67,1.28,1.2,1.2,0,0,0,.55,1.06,4,4,0,0,0,2,.37l4.35-.09c2.19,0,3.77.36,4.73,1.1a3.55,3.55,0,0,1,1.45,3,4.53,4.53,0,0,1-1.65,3.55q-2.29,2-6.87,2-3.78,0-5.61-1.39a3.07,3.07,0,0,1-1.44-2.44,2.58,2.58,0,0,1,.92-1.9,6.39,6.39,0,0,1,3.11-1.28,5.82,5.82,0,0,1-2.62-1.24,2.65,2.65,0,0,1-.88-2,2.89,2.89,0,0,1,.71-2,5.54,5.54,0,0,1,2.47-1.44,6,6,0,0,1-2.25-2,4.78,4.78,0,0,1-.76-2.68,5.1,5.1,0,0,1,1.88-4,7.25,7.25,0,0,1,4.89-1.62,7.82,7.82,0,0,1,2.37.36A8.24,8.24,0,0,1,439.92,560.85Zm-3.59,15.55a8.81,8.81,0,0,0-4.61.9,2.58,2.58,0,0,0-1.38,2.16,2.11,2.11,0,0,0,1,1.88,7,7,0,0,0,3.9.92,8.46,8.46,0,0,0,4.55-1,2.78,2.78,0,0,0,1.53-2.24,2.19,2.19,0,0,0-.47-1.34,3,3,0,0,0-1.52-.95A10.6,10.6,0,0,0,436.33,576.4Zm-1-15.85a3.29,3.29,0,0,0-2.59,1.15,4.7,4.7,0,0,0-1,3.23,5.2,5.2,0,0,0,1,3.43,3.23,3.23,0,0,0,2.6,1.22,3.26,3.26,0,0,0,2.6-1.18,5.13,5.13,0,0,0,1-3.4,4.88,4.88,0,0,0-1-3.26A3.3,3.3,0,0,0,435.3,560.55Z" transform="translate(8)"/><path class="cls-13" d="M65.68,593.59H79.11a9.31,9.31,0,0,1,6.06,1.77A5.77,5.77,0,0,1,87.32,600a5.69,5.69,0,0,1-.85,3.07A5.94,5.94,0,0,1,84,605.23,15.37,15.37,0,0,1,79,606.38a12.5,12.5,0,0,1,3.46,1.35,5,5,0,0,1,1.51,1.7,20.09,20.09,0,0,1,1.32,4.27,9.56,9.56,0,0,0,1.13,3.14,1.23,1.23,0,0,0,1,.65c.37,0,.7-.26,1-.8a6.56,6.56,0,0,0,.58-2.82h1.19q-.33,6-4.41,6a3.8,3.8,0,0,1-2.22-.65,3.89,3.89,0,0,1-1.42-1.92,27.67,27.67,0,0,1-.83-5,9,9,0,0,0-.83-3.32,4.09,4.09,0,0,0-1.78-1.59,6.65,6.65,0,0,0-2.91-.59H73.61V617a1.1,1.1,0,0,0,.33.91,2.07,2.07,0,0,0,1.32.34h2.5v1.32H65.68v-1.32h2.55a1.87,1.87,0,0,0,1.24-.34,1.12,1.12,0,0,0,.39-.91V596.24a1.22,1.22,0,0,0-.4-1,1.92,1.92,0,0,0-1.23-.33H65.68Zm7.93,11.95h3.07a8.65,8.65,0,0,0,4.85-1.17c1.16-.77,1.75-2.16,1.75-4.15a6.69,6.69,0,0,0-.66-3.24,3.55,3.55,0,0,0-1.73-1.64,13.34,13.34,0,0,0-4.22-.43,6.46,6.46,0,0,0-2.57.29,1,1,0,0,0-.49,1Z" transform="translate(8)"/><path class="cls-13" d="M107.39,611.46H95.6q.09,3.76,1.4,5.31a4.89,4.89,0,0,0,3.85,1.74c2.3,0,4.15-1.3,5.54-3.92l1.14.5q-2.57,5-7.41,5a7.37,7.37,0,0,1-5.57-2.39,8.6,8.6,0,0,1-2.26-6.12,9.3,9.3,0,0,1,2.23-6.48,7.08,7.08,0,0,1,5.47-2.47,7,7,0,0,1,4.13,1.23,7.38,7.38,0,0,1,2.62,3.54A11.91,11.91,0,0,1,107.39,611.46ZM95.6,610.22h7.13a1.23,1.23,0,0,0,1-.43,2.4,2.4,0,0,0,.35-1.47,4.78,4.78,0,0,0-1.2-3.29,3.7,3.7,0,0,0-2.84-1.35,3.79,3.79,0,0,0-3.1,1.63A8.1,8.1,0,0,0,95.6,610.22Z" transform="translate(8)"/><path class="cls-13" d="M111.17,610h7.12v2.69h-7.12Z" transform="translate(8)"/><path class="cls-13" d="M122,593.59h13.43a11.22,11.22,0,0,1,5.08,1,11.05,11.05,0,0,1,4.42,4.45,14.26,14.26,0,0,1,1.82,7.37,17.28,17.28,0,0,1-1.09,6.32,10,10,0,0,1-2.54,3.78,10.94,10.94,0,0,1-4.17,2.43,16.37,16.37,0,0,1-4.92.6H122v-1.32h2.46a2.1,2.1,0,0,0,1.3-.3,1.14,1.14,0,0,0,.36-.93V596.1a1.08,1.08,0,0,0-.39-.87,1.61,1.61,0,0,0-1.07-.32H122Zm9.42,1.32a1.73,1.73,0,0,0-1.16.33,1.24,1.24,0,0,0-.38,1V617a1.09,1.09,0,0,0,.44,1,2.54,2.54,0,0,0,1.49.33H134a9,9,0,0,0,5.2-1.53,6.31,6.31,0,0,0,2.21-2.87,18.24,18.24,0,0,0,1-6.89c0-4.33-.75-7.51-2.27-9.52a6.85,6.85,0,0,0-5.83-2.55Z" transform="translate(8)"/><path class="cls-13" d="M165.38,611.46H153.59q.09,3.76,1.4,5.31a4.89,4.89,0,0,0,3.85,1.74c2.3,0,4.15-1.3,5.54-3.92l1.14.5q-2.57,5-7.41,5a7.37,7.37,0,0,1-5.57-2.39,8.6,8.6,0,0,1-2.26-6.12,9.3,9.3,0,0,1,2.23-6.48,7.08,7.08,0,0,1,5.47-2.47,7,7,0,0,1,4.13,1.23,7.38,7.38,0,0,1,2.62,3.54A11.91,11.91,0,0,1,165.38,611.46Zm-11.79-1.24h7.14a1.21,1.21,0,0,0,1-.43,2.4,2.4,0,0,0,.35-1.47,4.78,4.78,0,0,0-1.2-3.29,3.7,3.7,0,0,0-2.84-1.35,3.8,3.8,0,0,0-3.1,1.63A8.1,8.1,0,0,0,153.59,610.22Z" transform="translate(8)"/><path class="cls-13" d="M173.56,603.12h4.11v1.52h-4.11v12a1.5,1.5,0,0,0,.38,1.16,2.29,2.29,0,0,0,1.48.44h2.25v1.32H167.58v-1.32H169a2,2,0,0,0,1.3-.32,1.21,1.21,0,0,0,.37-1V604.64h-2.85v-1.52h2.85v-1.25c0-2.9.6-5.12,1.81-6.64a5.47,5.47,0,0,1,4.47-2.29,4.6,4.6,0,0,1,3.1,1,3.21,3.21,0,0,1,1.11,2.54,2.3,2.3,0,0,1-.53,1.6,1.74,1.74,0,0,1-1.37.59,1.71,1.71,0,0,1-1.22-.47,1.63,1.63,0,0,1-.48-1.2,1.68,1.68,0,0,1,.63-1.35q.51-.42.51-.63a.69.69,0,0,0-.39-.55,2.31,2.31,0,0,0-1.18-.24,3.09,3.09,0,0,0-2.52,1.32,6.43,6.43,0,0,0-1,4Z" transform="translate(8)"/><path class="cls-13" d="M179.6,603.12l6.56-.2v14.17a1.05,1.05,0,0,0,.28.83,1.52,1.52,0,0,0,1,.35h1.86v1.32H180v-1.32h1.74a1.51,1.51,0,0,0,1.13-.38,1.53,1.53,0,0,0,.36-1.1V606.42a1.92,1.92,0,0,0-.56-1.49,2.47,2.47,0,0,0-1.67-.5H179.6Zm4.57-9.83a2.05,2.05,0,0,1,2,2,1.84,1.84,0,0,1-.58,1.37,1.89,1.89,0,0,1-1.39.58,2,2,0,0,1-2-2,2,2,0,0,1,2-2Z" transform="translate(8)"/><path class="cls-13" d="M191.26,603.12l5.47-.34a28.42,28.42,0,0,1,.49,3.62,7.93,7.93,0,0,1,2.61-2.69,6.56,6.56,0,0,1,3.4-.89,5.37,5.37,0,0,1,2.74.64,4.53,4.53,0,0,1,1.78,2,7.13,7.13,0,0,1,.66,3.11v8a1.68,1.68,0,0,0,.41,1.27,2,2,0,0,0,1.35.38h1.16v1.32h-8.68v-1.32h.83a2.66,2.66,0,0,0,1.61-.37,1.34,1.34,0,0,0,.46-1.11v-7a6.6,6.6,0,0,0-.7-3.41,3.3,3.3,0,0,0-3-1.58,4.14,4.14,0,0,0-3.32,1.6,6.33,6.33,0,0,0-1.32,4.17v6.1a1.64,1.64,0,0,0,.41,1.27,2,2,0,0,0,1.36.38h1.15v1.32h-8.72v-1.32h1.14a2.13,2.13,0,0,0,1.31-.35,1.09,1.09,0,0,0,.45-.88V606.4a2.13,2.13,0,0,0-.57-1.6,2.33,2.33,0,0,0-1.65-.54h-.84Z" transform="translate(8)"/><path class="cls-13" d="M228.7,611.46H216.9q.09,3.76,1.41,5.31a4.88,4.88,0,0,0,3.85,1.74c2.3,0,4.14-1.3,5.54-3.92l1.14.5q-2.57,5-7.42,5a7.35,7.35,0,0,1-5.56-2.39,8.56,8.56,0,0,1-2.26-6.12,9.34,9.34,0,0,1,2.22-6.48,7.12,7.12,0,0,1,5.48-2.47,7,7,0,0,1,4.13,1.23,7.45,7.45,0,0,1,2.62,3.54A11.91,11.91,0,0,1,228.7,611.46Zm-11.8-1.24H224a1.24,1.24,0,0,0,1-.43,2.4,2.4,0,0,0,.35-1.47,4.74,4.74,0,0,0-1.21-3.29,3.69,3.69,0,0,0-2.84-1.35,3.82,3.82,0,0,0-3.1,1.63A8.17,8.17,0,0,0,216.9,610.22Z" transform="translate(8)"/><path class="cls-13" d="M240.58,593.59l6.44-.3v22.53a2.82,2.82,0,0,0,.5,1.89,1.91,1.91,0,0,0,1.5.56h1.14v1.32h-5.62l-.42-3.36a7.78,7.78,0,0,1-2.35,2.7,5.31,5.31,0,0,1-3,.9,6.05,6.05,0,0,1-4.79-2.35,9.42,9.42,0,0,1-2-6.23,9,9,0,0,1,2.53-6.68,6.33,6.33,0,0,1,4.57-2,5.3,5.3,0,0,1,2.84.79,6.9,6.9,0,0,1,2.19,2.39v-9.29a1.35,1.35,0,0,0-.58-1.17,2.93,2.93,0,0,0-1.78-.43h-1.18Zm-1,10.49a3.5,3.5,0,0,0-3,1.57q-1.12,1.56-1.12,5.27,0,4,1.14,5.67a3.47,3.47,0,0,0,2.94,1.64,4,4,0,0,0,3.28-1.83,8.94,8.94,0,0,0,1.36-5.37,8.51,8.51,0,0,0-1.46-5.26A3.77,3.77,0,0,0,239.56,604.08Z" transform="translate(8)"/></svg>